Coordinates
version=1
nRows=10
nColumns=36
inDegrees=yes

Units are S.I. units (second, meters, Newtons, ...)
If the header above contains a line with 'inDegrees', this indicates whether rotational values are in degrees (yes) or radians (no).

endheader
time	pelvis_tilt	pelvis_list	pelvis_rotation	pelvis_tx	pelvis_ty	pelvis_tz	hip_flexion_r	hip_adduction_r	hip_rotation_r	knee_angle_r	knee_angle_r_beta	ankle_angle_r	subtalar_angle_r	mtp_angle_r	hip_flexion_l	hip_adduction_l	hip_rotation_l	knee_angle_l	knee_angle_l_beta	ankle_angle_l	subtalar_angle_l	mtp_angle_l	lumbar_extension	lumbar_bending	lumbar_rotation	arm_flex_r	arm_add_r	arm_rot_r	elbow_flex_r	pro_sup_r	arm_flex_l	arm_add_l	arm_rot_l	elbow_flex_l	pro_sup_l
      0.00000000	    -10.79198633	     12.53755052	    -74.05471164	     -0.04728921	      0.25568248	     -0.06208517	    119.97027890	     29.87283413	    -18.24366841	    139.98386687	      2.44317938	     47.32363217	    -34.49782007	     -6.82964239	    119.85328804	      8.34288842	      4.98665217	    139.97909401	      2.44309607	     42.94024955	    -33.36545690	     -6.82964239	    -89.86864935	    -11.60422451	     21.89565321	     21.26463998	     33.05091118	    -30.67163395	    125.77662386	    113.38349225	     33.24010047	     33.37590574	     42.08130165	     72.65256130	     32.06639540
      0.01666670	    -11.42864742	      3.35432283	    -79.55035283	     -0.03780846	      0.26298577	     -0.08115843	    119.97776070	     20.48916409	    -23.65739951	    139.98586086	      2.44321418	     24.83609927	    -34.76535136	     -7.32786711	    116.20981719	      8.35809833	      8.53850805	    139.98729298	      2.44323917	     48.99855278	    -34.55712930	     -7.32786711	    -89.92450257	    -12.17215813	     20.39699327	     23.66771549	     33.90233777	    -29.87519604	    117.67741083	    113.14907201	     41.76503033	     29.16088017	     54.69491666	     68.82618165	     20.47066753
      0.03333330	    -19.59471255	      1.72616649	    -86.36575713	     -0.00124741	      0.25358941	     -0.09619523	    119.97459483	      3.04557217	    -34.62075509	    139.98364021	      2.44317542	     34.49552872	    -34.69300759	     -7.41919644	    119.86003105	     17.51199164	     14.83147851	    139.99002440	      2.44328685	     47.02597067	    -34.64916720	     -7.41919644	    -89.92464701	     -5.46908316	     17.11458817	     20.46246153	     32.47384465	    -11.13193417	    113.65536026	    112.08499296	     35.73385164	     25.40334875	     46.04434603	     84.88615064	     24.07056850
      0.05000000	    -22.78062841	     -0.08723863	    -82.96839793	      0.00287871	      0.25341687	     -0.09454326	    119.97082415	     -1.74537490	    -38.76230173	    139.98378242	      2.44317790	     43.13907431	    -34.57654354	     -7.44353152	    119.92186387	     24.23389024	     18.07541831	    139.99054145	      2.44329587	     44.34044999	    -34.66858136	     -7.44353152	    -89.93049241	     -3.35850014	     16.24724005	     19.48287080	     30.23755275	     -4.07110312	    112.12325208	    112.67970700	     34.16573253	     23.46308780	     46.37864009	     87.94569702	     27.07683436
      0.06666670	    -22.47827435	      0.43151842	    -79.95822369	      0.00201621	      0.25534537	     -0.09021921	    119.96855303	     -3.22205761	    -39.08636970	    139.98429316	      2.44318682	     45.89961616	    -34.48260919	     -7.48704445	    119.93309999	     26.37259002	     17.04760823	    139.99043409	      2.44329400	     45.59618058	    -34.64160243	     -7.48704445	    -89.93244292	     -2.01385671	      8.22851576	     19.84257686	     29.67985189	      6.51228921	    104.78707438	    113.54280060	     32.46231211	     17.93429698	     44.90591433	     96.77911391	     37.58847539
      0.08333330	    -21.72059714	      2.04112874	    -77.79881624	     -0.00020397	      0.25588801	     -0.08535397	    119.96653327	     -3.63244224	    -38.49860062	    139.98428139	      2.44318661	     46.92336155	    -34.36513170	     -7.49088995	    119.93566640	     26.95849173	     16.15048486	    139.99013020	      2.44328869	     47.70035887	    -34.59953899	     -7.49088995	    -89.93080890	     -1.37356484	      7.30564911	     18.62758904	     29.73256958	      8.42890611	    105.68953320	    106.96351828	     31.23454668	     16.85331806	     46.38946217	     99.57897944	     41.41887142
      0.10000000	    -20.88680349	      4.07301068	    -76.64205553	     -0.00174147	      0.25538906	     -0.08087376	    119.96445654	     -3.59057433	    -37.33433654	    139.98408161	      2.44318312	     46.80082773	    -34.26265032	     -7.49963954	    119.93661104	     27.17789678	     15.71048172	    139.98969529	      2.44328110	     48.47587233	    -34.58955747	     -7.49963954	    -89.92539502	     -0.29389727	      0.05216247	     19.74694015	     28.80273801	     19.23024642	     99.05088182	    113.62419811	     30.50504895	     11.50115982	     47.26539513	    107.21656563	     59.36925164
      0.11666670	    -20.37613029	      6.00837690	    -76.28892057	     -0.00247370	      0.25422795	     -0.07739244	    119.96203274	     -3.46566999	    -36.28049474	    139.98376327	      2.44317757	     46.27166430	    -34.13244015	     -7.49983787	    119.93748037	     27.55504105	     16.13067008	    139.98926657	      2.44327362	     48.92678422	    -34.59171675	     -7.49983787	    -89.91925300	     -0.11494247	      0.44612337	     18.55047494	     28.46111184	     19.61921353	    100.73618581	    113.59858142	     30.13994629	     11.34804603	     49.38878807	    107.63824677	     62.66344751
      0.13333330	    -20.33643499	      7.78769400	    -76.51536348	     -0.00224830	      0.25296947	     -0.07476420	    119.95884090	     -3.50550039	    -35.75578368	    139.98329898	      2.44316946	     45.39700679	    -33.99652279	     -7.49993074	    119.94018486	     28.29265592	     17.42965045	    139.98895519	      2.44326818	     49.16644655	    -34.60739602	     -7.49993074	    -89.91280396	     -0.11346723	      1.15904304	     17.18241631	     28.56703648	     18.86294133	    102.37988229	    113.47485925	     29.63899057	     11.62607182	     50.68843326	    107.63725225	     65.98976325
      0.15000000	    -20.28882299	      9.39118638	    -77.27726747	     -0.00151275	      0.25207757	     -0.07281866	    119.95561201	     -3.56736595	    -35.52477867	    139.98287453	      2.44316206	     44.29743549	    -33.87638919	     -7.49993831	    119.94340747	     29.01780055	     18.82784757	    139.98877211	      2.44326499	     49.30632564	    -34.62742898	     -7.49993831	    -89.90834690	     -0.40534778	      0.79564167	     16.09915949	     28.82285074	     18.90763314	    103.31436866	    110.48838348	     28.83079793	     11.66427238	     50.91091086	    108.30497604	     66.03512115
